<svg width="145" height="49" viewBox="0 0 145 49" fill="none" xmlns="http://www.w3.org/2000/svg">
<rect y="0.5" width="145" height="48" rx="6" fill="#4B4EFC"/>
<path d="M26.5 21.1666L33.0755 25.5503C33.6353 25.9235 34.3647 25.9235 34.9245 25.5503L41.5 21.1666M28.1667 30.3333H39.8333C40.7538 30.3333 41.5 29.5871 41.5 28.6666V20.3333C41.5 19.4128 40.7538 18.6666 39.8333 18.6666H28.1667C27.2462 18.6666 26.5 19.4128 26.5 20.3333V28.6666C26.5 29.5871 27.2462 30.3333 28.1667 30.3333Z" stroke="white" stroke-width="2" stroke-linecap="round" stroke-linejoin="round"/>
<path d="M63.5064 22.6662H61.5121C61.4354 22.2401 61.2926 21.8651 61.0838 21.5412C60.875 21.2173 60.6193 20.9425 60.3168 20.7166C60.0142 20.4908 59.6754 20.3203 59.3004 20.2053C58.9297 20.0902 58.5355 20.0327 58.1179 20.0327C57.3636 20.0327 56.6882 20.2223 56.0916 20.6016C55.4993 20.9808 55.0305 21.5369 54.6854 22.2699C54.3445 23.0028 54.174 23.8977 54.174 24.9545C54.174 26.0199 54.3445 26.919 54.6854 27.652C55.0305 28.3849 55.5014 28.9389 56.098 29.3139C56.6946 29.6889 57.3658 29.8764 58.1115 29.8764C58.5249 29.8764 58.9169 29.821 59.2876 29.7102C59.6626 29.5952 60.0014 29.4268 60.304 29.2053C60.6065 28.9837 60.8622 28.7131 61.071 28.3935C61.2841 28.0696 61.4311 27.6989 61.5121 27.2812L63.5064 27.2876C63.3999 27.9311 63.1932 28.5234 62.8864 29.0646C62.5838 29.6016 62.1939 30.0661 61.7166 30.4581C61.2436 30.8459 60.7024 31.1463 60.093 31.3594C59.4837 31.5724 58.8189 31.679 58.0987 31.679C56.9652 31.679 55.9553 31.4105 55.0689 30.8736C54.1825 30.3324 53.4837 29.5589 52.9723 28.5533C52.4652 27.5476 52.2116 26.348 52.2116 24.9545C52.2116 23.5568 52.4673 22.3572 52.9787 21.3558C53.4901 20.3501 54.1889 19.5788 55.0753 19.0419C55.9616 18.5007 56.9695 18.2301 58.0987 18.2301C58.7933 18.2301 59.4411 18.3303 60.0419 18.5305C60.647 18.7266 61.1903 19.0163 61.6719 19.3999C62.1534 19.7791 62.5518 20.2436 62.8672 20.7933C63.1825 21.3388 63.3956 21.9631 63.5064 22.6662ZM69.8521 31.6982C68.9316 31.6982 68.1284 31.4872 67.4423 31.0653C66.7562 30.6435 66.2235 30.0533 65.8443 29.2947C65.465 28.5362 65.2754 27.6499 65.2754 26.6357C65.2754 25.6172 65.465 24.7266 65.8443 23.9638C66.2235 23.201 66.7562 22.6087 67.4423 22.1868C68.1284 21.7649 68.9316 21.554 69.8521 21.554C70.7725 21.554 71.5758 21.7649 72.2619 22.1868C72.948 22.6087 73.4806 23.201 73.8599 23.9638C74.2392 24.7266 74.4288 25.6172 74.4288 26.6357C74.4288 27.6499 74.2392 28.5362 73.8599 29.2947C73.4806 30.0533 72.948 30.6435 72.2619 31.0653C71.5758 31.4872 70.7725 31.6982 69.8521 31.6982ZM69.8585 30.0938C70.4551 30.0938 70.9494 29.9361 71.3414 29.6207C71.7335 29.3054 72.0233 28.8857 72.2108 28.3615C72.4025 27.8374 72.4984 27.2599 72.4984 26.6293C72.4984 26.0028 72.4025 25.4276 72.2108 24.9034C72.0233 24.375 71.7335 23.951 71.3414 23.6314C70.9494 23.3118 70.4551 23.152 69.8585 23.152C69.2576 23.152 68.7591 23.3118 68.3627 23.6314C67.9707 23.951 67.6788 24.375 67.487 24.9034C67.2995 25.4276 67.2058 26.0028 67.2058 26.6293C67.2058 27.2599 67.2995 27.8374 67.487 28.3615C67.6788 28.8857 67.9707 29.3054 68.3627 29.6207C68.7591 29.9361 69.2576 30.0938 69.8585 30.0938ZM78.4734 25.6705V31.5H76.5621V21.6818H78.3967V23.2798H78.5181C78.744 22.7599 79.0977 22.3423 79.5792 22.027C80.065 21.7116 80.6765 21.554 81.4137 21.554C82.0827 21.554 82.6687 21.6946 83.1715 21.9759C83.6744 22.2528 84.0643 22.6662 84.3413 23.2159C84.6183 23.7656 84.7567 24.4453 84.7567 25.255V31.5H82.8455V25.4851C82.8455 24.7734 82.6602 24.2173 82.2894 23.8168C81.9187 23.4119 81.4094 23.2095 80.7617 23.2095C80.3185 23.2095 79.9244 23.3054 79.5792 23.4972C79.2383 23.6889 78.9677 23.9702 78.7674 24.3409C78.5714 24.7074 78.4734 25.1506 78.4734 25.6705ZM91.9031 21.6818V23.2159H86.5401V21.6818H91.9031ZM87.9783 19.3295H89.8896V28.6172C89.8896 28.9879 89.945 29.267 90.0558 29.4545C90.1665 29.6378 90.3093 29.7635 90.484 29.8317C90.663 29.8956 90.8569 29.9276 91.0657 29.9276C91.2191 29.9276 91.3533 29.9169 91.4684 29.8956C91.5835 29.8743 91.6729 29.8572 91.7369 29.8445L92.082 31.4233C91.9712 31.4659 91.8136 31.5085 91.609 31.5511C91.4045 31.598 91.1488 31.6236 90.842 31.6278C90.3391 31.6364 89.8704 31.5469 89.4357 31.3594C89.0011 31.1719 88.6495 30.8821 88.381 30.4901C88.1126 30.098 87.9783 29.6058 87.9783 29.0135V19.3295ZM97.5872 31.6918C96.7946 31.6918 96.0872 31.4893 95.465 31.0845C94.8471 30.6754 94.3613 30.0937 94.0076 29.3395C93.6582 28.581 93.4835 27.6712 93.4835 26.6101C93.4835 25.549 93.6603 24.6413 94.014 23.8871C94.372 23.1328 94.862 22.5554 95.4842 22.1548C96.1064 21.7543 96.8116 21.554 97.6 21.554C98.2093 21.554 98.6994 21.6562 99.0701 21.8608C99.4451 22.0611 99.7349 22.2955 99.9395 22.5639C100.148 22.8324 100.31 23.0689 100.425 23.2734H100.54V21.6818H102.452V31.5H100.585V29.9723H100.425C100.31 30.1811 100.144 30.4197 99.9267 30.6882C99.7136 30.9567 99.4196 31.1911 99.0446 31.3913C98.6696 31.5916 98.1838 31.6918 97.5872 31.6918ZM98.0091 30.0618C98.5588 30.0618 99.0233 29.9169 99.4025 29.6271C99.786 29.3331 100.076 28.9261 100.272 28.4062C100.472 27.8864 100.572 27.2812 100.572 26.5909C100.572 25.9091 100.474 25.3125 100.278 24.8011C100.082 24.2898 99.7946 23.8913 99.4153 23.6058C99.036 23.3203 98.5673 23.1776 98.0091 23.1776C97.4338 23.1776 96.9544 23.3267 96.5708 23.625C96.1873 23.9233 95.8975 24.3303 95.7015 24.8459C95.5098 25.3615 95.4139 25.9432 95.4139 26.5909C95.4139 27.2472 95.5119 27.8374 95.7079 28.3615C95.9039 28.8857 96.1937 29.3011 96.5772 29.608C96.965 29.9105 97.4423 30.0618 98.0091 30.0618ZM109.315 31.6982C108.365 31.6982 107.547 31.483 106.86 31.0526C106.179 30.6179 105.654 30.0192 105.288 29.2564C104.922 28.4936 104.738 27.62 104.738 26.6357C104.738 25.6385 104.926 24.7585 105.301 23.9957C105.676 23.2287 106.204 22.63 106.886 22.1996C107.568 21.7692 108.371 21.554 109.296 21.554C110.042 21.554 110.706 21.6925 111.29 21.9695C111.874 22.2422 112.345 22.6257 112.703 23.12C113.065 23.6143 113.28 24.1918 113.348 24.8523H111.488C111.386 24.392 111.152 23.9957 110.785 23.6634C110.423 23.331 109.937 23.1648 109.328 23.1648C108.795 23.1648 108.328 23.3054 107.928 23.5866C107.532 23.8636 107.223 24.2599 107.001 24.7756C106.779 25.2869 106.669 25.892 106.669 26.5909C106.669 27.3068 106.777 27.9247 106.995 28.4446C107.212 28.9645 107.519 29.3672 107.915 29.6527C108.316 29.9382 108.787 30.081 109.328 30.081C109.69 30.081 110.018 30.0149 110.312 29.8828C110.61 29.7464 110.86 29.5526 111.06 29.3011C111.265 29.0497 111.407 28.7472 111.488 28.3935H113.348C113.28 29.0284 113.074 29.5952 112.728 30.0938C112.383 30.5923 111.921 30.9844 111.341 31.2699C110.766 31.5554 110.091 31.6982 109.315 31.6982ZM119.975 21.6818V23.2159H114.612V21.6818H119.975ZM116.051 19.3295H117.962V28.6172C117.962 28.9879 118.017 29.267 118.128 29.4545C118.239 29.6378 118.382 29.7635 118.556 29.8317C118.735 29.8956 118.929 29.9276 119.138 29.9276C119.291 29.9276 119.426 29.9169 119.541 29.8956C119.656 29.8743 119.745 29.8572 119.809 29.8445L120.154 31.4233C120.044 31.4659 119.886 31.5085 119.681 31.5511C119.477 31.598 119.221 31.6236 118.914 31.6278C118.411 31.6364 117.943 31.5469 117.508 31.3594C117.073 31.1719 116.722 30.8821 116.453 30.4901C116.185 30.098 116.051 29.6058 116.051 29.0135V19.3295Z" fill="white"/>
</svg>
