<svg width="137" height="52" viewBox="0 0 137 52" fill="none" xmlns="http://www.w3.org/2000/svg">
<g filter="url(#filter0_d_24_3548)">
<rect x="2" y="1" width="133" height="48" rx="6" fill="white"/>
<g clip-path="url(#clip0_24_3548)">
<path d="M36 15.2475C30.4756 15.2475 26 19.7268 26 25.2475C26 29.6681 28.865 33.415 32.8356 34.7368C33.3375 34.8312 33.5187 34.5218 33.5187 34.2543C33.5187 34.0168 33.5131 33.3887 33.5094 32.555C30.7263 33.1574 30.14 31.2106 30.14 31.2106C29.6844 30.0581 29.0269 29.7487 29.0269 29.7487C28.1219 29.1306 29.0988 29.1437 29.0988 29.1437C30.1013 29.2118 30.6287 30.1718 30.6287 30.1718C31.5206 31.7018 32.9688 31.2593 33.5419 31.0018C33.6294 30.3575 33.89 29.9143 34.1737 29.6675C31.9538 29.4168 29.6194 28.5575 29.6194 24.7256C29.6194 23.6312 30.0069 22.74 30.6475 22.04C30.5369 21.7893 30.1981 20.7706 30.7356 19.3931C30.7356 19.3931 31.5725 19.1262 33.4856 20.4187C34.2863 20.1968 35.1363 20.0862 35.9856 20.0806C36.8356 20.0862 37.685 20.1975 38.4856 20.4187C40.3875 19.1262 41.2238 19.3931 41.2238 19.3931C41.7606 20.7706 41.4219 21.7887 41.3244 22.04C41.9587 22.74 42.3462 23.6318 42.3462 24.7256C42.3462 28.5662 40.0087 29.4131 37.7863 29.6575C38.1337 29.9568 38.4594 30.5725 38.4594 31.5068C38.4594 32.8443 38.4469 33.9218 38.4469 34.2474C38.4469 34.5075 38.6219 34.82 39.1369 34.7193C43.1369 33.4112 45.9987 29.6612 45.9987 25.2468C45.9987 19.7262 41.5231 15.2468 35.9987 15.2468L36 15.2475Z" fill="black"/>
</g>
<path d="M60.0689 32.179C58.8885 32.179 57.8509 31.9062 56.956 31.3608C56.0611 30.8153 55.3643 30.0419 54.8658 29.0405C54.3672 28.0348 54.1179 26.8416 54.1179 25.4609C54.1179 24.4169 54.2649 23.4794 54.5589 22.6484C54.8572 21.8175 55.2727 21.1122 55.8054 20.5327C56.3381 19.9489 56.9645 19.5036 57.6847 19.1967C58.4048 18.8857 59.1868 18.7301 60.0305 18.7301C60.7379 18.7301 61.4006 18.8345 62.0185 19.0433C62.6406 19.2521 63.1967 19.5483 63.6868 19.9318C64.1768 20.3111 64.5817 20.7649 64.9013 21.2933C65.2251 21.8217 65.4425 22.4055 65.5533 23.0447H63.527C63.4119 22.657 63.2479 22.3097 63.0348 22.0028C62.8217 21.6918 62.5639 21.4276 62.2614 21.2102C61.9631 20.9886 61.6286 20.8203 61.2578 20.7053C60.8871 20.5902 60.4844 20.5327 60.0497 20.5327C59.3082 20.5327 58.6371 20.7223 58.0362 21.1016C57.4354 21.4808 56.9581 22.0369 56.6044 22.7699C56.255 23.4986 56.0803 24.3913 56.0803 25.4482C56.0803 26.5092 56.2528 27.4062 56.598 28.1392C56.9432 28.8722 57.4162 29.4283 58.017 29.8075C58.6179 30.1868 59.3018 30.3764 60.0689 30.3764C60.8018 30.3764 61.4411 30.223 61.9865 29.9162C62.532 29.6094 62.9538 29.1854 63.2521 28.6442C63.5547 28.103 63.706 27.483 63.706 26.7841L64.0192 26.9311H60.3693V25.3011H65.6428V32H64.1214L63.9425 30.4339H63.8786C63.397 30.9922 62.8516 31.4226 62.2422 31.7251C61.6371 32.0277 60.9126 32.179 60.0689 32.179ZM67.9918 32V22.1818H69.9031V32H67.9918ZM68.957 20.6669C68.6246 20.6669 68.3391 20.5561 68.1005 20.3345C67.8661 20.1087 67.7489 19.8402 67.7489 19.5291C67.7489 19.2138 67.8661 18.9453 68.1005 18.7237C68.3391 18.4979 68.6246 18.3849 68.957 18.3849C69.2894 18.3849 69.5728 18.4979 69.8072 18.7237C70.0458 18.9453 70.1651 19.2138 70.1651 19.5291C70.1651 19.8402 70.0458 20.1087 69.8072 20.3345C69.5728 20.5561 69.2894 20.6669 68.957 20.6669ZM77.0574 22.1818V23.7159H71.6944V22.1818H77.0574ZM73.1326 19.8295H75.0439V29.1172C75.0439 29.4879 75.0993 29.767 75.21 29.9545C75.3208 30.1378 75.4636 30.2635 75.6383 30.3317C75.8173 30.3956 76.0112 30.4276 76.22 30.4276C76.3734 30.4276 76.5076 30.4169 76.6227 30.3956C76.7377 30.3743 76.8272 30.3572 76.8912 30.3445L77.2363 31.9233C77.1255 31.9659 76.9679 32.0085 76.7633 32.0511C76.5588 32.098 76.3031 32.1236 75.9963 32.1278C75.4934 32.1364 75.0247 32.0469 74.59 31.8594C74.1554 31.6719 73.8038 31.3821 73.5353 30.9901C73.2669 30.598 73.1326 30.1058 73.1326 29.5135V19.8295ZM81.2937 26.1705V32H79.3825V18.9091H81.2681V23.7798H81.3896C81.6197 23.2514 81.9712 22.8317 82.4442 22.5206C82.9173 22.2095 83.5352 22.054 84.2979 22.054C84.9712 22.054 85.5593 22.1925 86.0621 22.4695C86.5692 22.7464 86.9613 23.1598 87.2383 23.7095C87.5195 24.255 87.6602 24.9368 87.6602 25.755V32H85.7489V25.9851C85.7489 25.2649 85.5636 24.7067 85.1928 24.3104C84.8221 23.9098 84.3065 23.7095 83.646 23.7095C83.1942 23.7095 82.7894 23.8054 82.4315 23.9972C82.0778 24.1889 81.7987 24.4702 81.5941 24.8409C81.3938 25.2074 81.2937 25.6506 81.2937 26.1705ZM96.43 27.9283V22.1818H98.3477V32H96.4684V30.2997H96.3661C96.1403 30.8239 95.7781 31.2607 95.2795 31.6101C94.7852 31.9553 94.1694 32.1278 93.4322 32.1278C92.8015 32.1278 92.2433 31.9893 91.7575 31.7124C91.2759 31.4311 90.8967 31.0156 90.6197 30.4659C90.3469 29.9162 90.2106 29.2365 90.2106 28.4268V22.1818H92.1218V28.1967C92.1218 28.8658 92.3072 29.3984 92.6779 29.7947C93.0487 30.1911 93.5302 30.3892 94.1225 30.3892C94.4805 30.3892 94.8363 30.2997 95.19 30.1207C95.5479 29.9418 95.8441 29.6712 96.0785 29.3089C96.3171 28.9467 96.4343 28.4865 96.43 27.9283ZM101.069 32V18.9091H102.98V23.7734H103.095C103.206 23.5689 103.366 23.3324 103.575 23.0639C103.784 22.7955 104.073 22.5611 104.444 22.3608C104.815 22.1562 105.305 22.054 105.914 22.054C106.707 22.054 107.414 22.2543 108.036 22.6548C108.659 23.0554 109.146 23.6328 109.5 24.3871C109.858 25.1413 110.037 26.049 110.037 27.1101C110.037 28.1712 109.86 29.081 109.507 29.8395C109.153 30.5937 108.667 31.1754 108.049 31.5845C107.431 31.9893 106.726 32.1918 105.933 32.1918C105.337 32.1918 104.849 32.0916 104.47 31.8913C104.095 31.6911 103.801 31.4567 103.588 31.1882C103.374 30.9197 103.21 30.6811 103.095 30.4723H102.936V32H101.069ZM102.942 27.0909C102.942 27.7812 103.042 28.3864 103.242 28.9062C103.443 29.4261 103.732 29.8331 104.112 30.1271C104.491 30.4169 104.955 30.5618 105.505 30.5618C106.076 30.5618 106.553 30.4105 106.937 30.108C107.32 29.8011 107.61 29.3857 107.806 28.8615C108.007 28.3374 108.107 27.7472 108.107 27.0909C108.107 26.4432 108.009 25.8615 107.813 25.3459C107.621 24.8303 107.331 24.4233 106.943 24.125C106.56 23.8267 106.08 23.6776 105.505 23.6776C104.951 23.6776 104.482 23.8203 104.099 24.1058C103.72 24.3913 103.432 24.7898 103.236 25.3011C103.04 25.8125 102.942 26.4091 102.942 27.0909Z" fill="#374151"/>
<rect x="2.5" y="1.5" width="132" height="47" rx="5.5" stroke="#D1D5DB"/>
</g>
<defs>
<filter id="filter0_d_24_3548" x="0" y="0" width="137" height="52" filterUnits="userSpaceOnUse" color-interpolation-filters="sRGB">
<feFlood flood-opacity="0" result="BackgroundImageFix"/>
<feColorMatrix in="SourceAlpha" type="matrix" values="0 0 0 0 0 0 0 0 0 0 0 0 0 0 0 0 0 0 127 0" result="hardAlpha"/>
<feOffset dy="1"/>
<feGaussianBlur stdDeviation="1"/>
<feColorMatrix type="matrix" values="0 0 0 0 0.0627451 0 0 0 0 0.0941176 0 0 0 0 0.156863 0 0 0 0.05 0"/>
<feBlend mode="normal" in2="BackgroundImageFix" result="effect1_dropShadow_24_3548"/>
<feBlend mode="normal" in="SourceGraphic" in2="effect1_dropShadow_24_3548" result="shape"/>
</filter>
<clipPath id="clip0_24_3548">
<rect width="20" height="20" fill="white" transform="translate(26 15)"/>
</clipPath>
</defs>
</svg>
