<svg width="185" height="48" viewBox="0 0 185 48" fill="none" xmlns="http://www.w3.org/2000/svg">
<rect width="185" height="48" rx="6" fill="black"/>
<g clip-path="url(#clip0_24_3540)">
<path d="M34 14.625C28.8223 14.625 24.625 18.8223 24.625 24C24.625 29.1777 28.8223 33.375 34 33.375C39.1777 33.375 43.375 29.1777 43.375 24C43.375 18.8223 39.1777 14.625 34 14.625ZM30.8378 31.487C28.8535 30.6467 27.2836 29.0534 26.4728 27.0569C25.662 25.0603 25.6765 22.8237 26.513 20.8378C26.5528 20.7437 26.5947 20.6509 26.638 20.5587L28.6875 22.4034V24.8735L31.6992 28.0625H33.2188V29.9784L31.3808 31.6938C31.1979 31.6315 31.0169 31.5625 30.8378 31.487ZM39.7452 29.7452C38.9917 30.501 38.0962 31.1003 37.1102 31.5087C36.1242 31.9172 35.0672 32.1266 34 32.125C33.6115 32.125 33.2236 32.0975 32.839 32.0427L34.4688 30.5216V26.8125H32.2383L29.9375 24.3765V21.8466L27.2695 19.4456C28.1523 18.1454 29.3911 17.1272 30.8376 16.513C32.0754 15.9894 33.4239 15.7813 34.7619 15.9075C36.1 16.0337 37.3858 16.4901 38.5039 17.2359L36.7241 19.5243L37.3291 21.037L36.9196 21.4465L33.8486 20.8323L32.125 22.125V25.5625H39L40.9666 28.1846C40.6246 28.7527 40.2145 29.2768 39.7452 29.7452ZM42.125 24C42.1268 24.9996 41.9431 25.9908 41.5831 26.9233L39.625 24.3125H33.375V22.75L34.1514 22.1677L37.3304 22.8035L38.7959 21.338L38.1509 19.7257L39.4869 18.0079C39.5744 18.0882 39.6605 18.1705 39.7451 18.2548C40.5009 19.0083 41.1002 19.9038 41.5087 20.8898C41.9171 21.8757 42.1266 22.9328 42.125 24Z" fill="white"/>
</g>
<path d="M52.6472 31V17.9091H54.6223V29.2997H60.5542V31H52.6472ZM62.6539 31V21.1818H64.5652V31H62.6539ZM63.6191 19.6669C63.2868 19.6669 63.0012 19.5561 62.7626 19.3345C62.5282 19.1087 62.411 18.8402 62.411 18.5291C62.411 18.2138 62.5282 17.9453 62.7626 17.7237C63.0012 17.4979 63.2868 17.3849 63.6191 17.3849C63.9515 17.3849 64.2349 17.4979 64.4693 17.7237C64.7079 17.9453 64.8272 18.2138 64.8272 18.5291C64.8272 18.8402 64.7079 19.1087 64.4693 19.3345C64.2349 19.5561 63.9515 19.6669 63.6191 19.6669ZM75.5355 21.1818L71.9751 31H69.9297L66.3629 21.1818H68.4148L70.9013 28.7372H71.0036L73.4837 21.1818H75.5355ZM81.2292 31.1982C80.2619 31.1982 79.4288 30.9915 78.7299 30.5781C78.0353 30.1605 77.4984 29.5746 77.1191 28.8203C76.7441 28.0618 76.5566 27.1733 76.5566 26.1548C76.5566 25.1491 76.7441 24.2628 77.1191 23.4957C77.4984 22.7287 78.0268 22.13 78.7044 21.6996C79.3862 21.2692 80.1831 21.054 81.095 21.054C81.649 21.054 82.1859 21.1456 82.7058 21.3288C83.2257 21.5121 83.6923 21.7997 84.1056 22.1918C84.519 22.5838 84.845 23.093 85.0836 23.7195C85.3223 24.3416 85.4416 25.098 85.4416 25.9886V26.6662H77.6369V25.2344H83.5687C83.5687 24.7315 83.4664 24.2862 83.2619 23.8984C83.0574 23.5064 82.7697 23.1974 82.399 22.9716C82.0325 22.7457 81.6021 22.6328 81.1078 22.6328C80.5708 22.6328 80.1021 22.7649 79.7015 23.0291C79.3052 23.2891 78.9984 23.63 78.7811 24.0518C78.568 24.4695 78.4615 24.9233 78.4615 25.4134V26.532C78.4615 27.1882 78.5765 27.7464 78.8066 28.2067C79.041 28.6669 79.367 29.0185 79.7846 29.2614C80.2022 29.5 80.6902 29.6193 81.2484 29.6193C81.6106 29.6193 81.9409 29.5682 82.2392 29.4659C82.5375 29.3594 82.7953 29.2017 83.0126 28.9929C83.2299 28.7841 83.3961 28.5263 83.5112 28.2195L85.3201 28.5455C85.1752 29.0781 84.9153 29.5447 84.5403 29.9453C84.1696 30.3416 83.7029 30.6506 83.1404 30.8722C82.5822 31.0895 81.9451 31.1982 81.2292 31.1982ZM95.0424 31L91.4118 17.9091H93.4892L96.0396 28.0469H96.161L98.8137 17.9091H100.872L103.525 28.0533H103.646L106.19 17.9091H108.274L104.637 31H102.649L99.894 21.1946H99.7917L97.0368 31H95.0424ZM113.186 31.1982C112.219 31.1982 111.386 30.9915 110.687 30.5781C109.992 30.1605 109.455 29.5746 109.076 28.8203C108.701 28.0618 108.514 27.1733 108.514 26.1548C108.514 25.1491 108.701 24.2628 109.076 23.4957C109.455 22.7287 109.984 22.13 110.661 21.6996C111.343 21.2692 112.14 21.054 113.052 21.054C113.606 21.054 114.143 21.1456 114.663 21.3288C115.183 21.5121 115.649 21.7997 116.063 22.1918C116.476 22.5838 116.802 23.093 117.041 23.7195C117.279 24.3416 117.399 25.098 117.399 25.9886V26.6662H109.594V25.2344H115.526C115.526 24.7315 115.423 24.2862 115.219 23.8984C115.014 23.5064 114.727 23.1974 114.356 22.9716C113.99 22.7457 113.559 22.6328 113.065 22.6328C112.528 22.6328 112.059 22.7649 111.659 23.0291C111.262 23.2891 110.955 23.63 110.738 24.0518C110.525 24.4695 110.419 24.9233 110.419 25.4134V26.532C110.419 27.1882 110.534 27.7464 110.764 28.2067C110.998 28.6669 111.324 29.0185 111.742 29.2614C112.159 29.5 112.647 29.6193 113.205 29.6193C113.568 29.6193 113.898 29.5682 114.196 29.4659C114.494 29.3594 114.752 29.2017 114.97 28.9929C115.187 28.7841 115.353 28.5263 115.468 28.2195L117.277 28.5455C117.132 29.0781 116.872 29.5447 116.497 29.9453C116.127 30.3416 115.66 30.6506 115.097 30.8722C114.539 31.0895 113.902 31.1982 113.186 31.1982ZM119.673 31V17.9091H121.584V22.7734H121.699C121.81 22.5689 121.969 22.3324 122.178 22.0639C122.387 21.7955 122.677 21.5611 123.048 21.3608C123.418 21.1562 123.908 21.054 124.518 21.054C125.31 21.054 126.018 21.2543 126.64 21.6548C127.262 22.0554 127.75 22.6328 128.104 23.3871C128.462 24.1413 128.641 25.049 128.641 26.1101C128.641 27.1712 128.464 28.081 128.11 28.8395C127.756 29.5937 127.271 30.1754 126.653 30.5845C126.035 30.9893 125.33 31.1918 124.537 31.1918C123.94 31.1918 123.452 31.0916 123.073 30.8913C122.698 30.6911 122.404 30.4567 122.191 30.1882C121.978 29.9197 121.814 29.6811 121.699 29.4723H121.539V31H119.673ZM121.545 26.0909C121.545 26.7812 121.646 27.3864 121.846 27.9062C122.046 28.4261 122.336 28.8331 122.715 29.1271C123.094 29.4169 123.559 29.5618 124.109 29.5618C124.68 29.5618 125.157 29.4105 125.54 29.108C125.924 28.8011 126.214 28.3857 126.41 27.8615C126.61 27.3374 126.71 26.7472 126.71 26.0909C126.71 25.4432 126.612 24.8615 126.416 24.3459C126.224 23.8303 125.935 23.4233 125.547 23.125C125.163 22.8267 124.684 22.6776 124.109 22.6776C123.555 22.6776 123.086 22.8203 122.702 23.1058C122.323 23.3913 122.036 23.7898 121.839 24.3011C121.643 24.8125 121.545 25.4091 121.545 26.0909ZM138.144 23.5788L136.412 23.8857C136.339 23.6641 136.224 23.4531 136.067 23.2528C135.913 23.0526 135.704 22.8885 135.44 22.7607C135.176 22.6328 134.846 22.5689 134.449 22.5689C133.908 22.5689 133.456 22.6903 133.094 22.9332C132.732 23.1719 132.551 23.4808 132.551 23.8601C132.551 24.1882 132.672 24.4524 132.915 24.6527C133.158 24.853 133.55 25.017 134.091 25.1449L135.651 25.5028C136.555 25.7116 137.228 26.0334 137.671 26.468C138.114 26.9027 138.336 27.4673 138.336 28.1619C138.336 28.75 138.165 29.2741 137.824 29.7344C137.488 30.1903 137.017 30.5483 136.412 30.8082C135.811 31.0682 135.114 31.1982 134.322 31.1982C133.222 31.1982 132.325 30.9638 131.631 30.495C130.936 30.022 130.51 29.3509 130.352 28.4815L132.199 28.2003C132.314 28.6818 132.551 29.0462 132.909 29.2933C133.267 29.5362 133.733 29.6577 134.309 29.6577C134.935 29.6577 135.436 29.5277 135.811 29.2678C136.186 29.0036 136.373 28.6818 136.373 28.3026C136.373 27.9957 136.258 27.7379 136.028 27.5291C135.802 27.3203 135.455 27.1626 134.986 27.0561L133.324 26.6918C132.408 26.483 131.731 26.1506 131.292 25.6946C130.857 25.2386 130.64 24.6612 130.64 23.9624C130.64 23.3828 130.802 22.8757 131.126 22.4411C131.449 22.0064 131.897 21.6676 132.468 21.4247C133.039 21.1776 133.693 21.054 134.43 21.054C135.491 21.054 136.327 21.2841 136.936 21.7443C137.545 22.2003 137.948 22.8118 138.144 23.5788ZM140.437 31V21.1818H142.348V31H140.437ZM141.402 19.6669C141.07 19.6669 140.784 19.5561 140.546 19.3345C140.311 19.1087 140.194 18.8402 140.194 18.5291C140.194 18.2138 140.311 17.9453 140.546 17.7237C140.784 17.4979 141.07 17.3849 141.402 17.3849C141.735 17.3849 142.018 17.4979 142.252 17.7237C142.491 17.9453 142.61 18.2138 142.61 18.5291C142.61 18.8402 142.491 19.1087 142.252 19.3345C142.018 19.5561 141.735 19.6669 141.402 19.6669ZM149.503 21.1818V22.7159H144.14V21.1818H149.503ZM145.578 18.8295H147.489V28.1172C147.489 28.4879 147.545 28.767 147.655 28.9545C147.766 29.1378 147.909 29.2635 148.084 29.3317C148.263 29.3956 148.456 29.4276 148.665 29.4276C148.819 29.4276 148.953 29.4169 149.068 29.3956C149.183 29.3743 149.273 29.3572 149.336 29.3445L149.682 30.9233C149.571 30.9659 149.413 31.0085 149.209 31.0511C149.004 31.098 148.748 31.1236 148.442 31.1278C147.939 31.1364 147.47 31.0469 147.035 30.8594C146.601 30.6719 146.249 30.3821 145.981 29.9901C145.712 29.598 145.578 29.1058 145.578 28.5135V18.8295ZM155.743 31.1982C154.776 31.1982 153.942 30.9915 153.244 30.5781C152.549 30.1605 152.012 29.5746 151.633 28.8203C151.258 28.0618 151.07 27.1733 151.07 26.1548C151.07 25.1491 151.258 24.2628 151.633 23.4957C152.012 22.7287 152.54 22.13 153.218 21.6996C153.9 21.2692 154.697 21.054 155.609 21.054C156.163 21.054 156.7 21.1456 157.219 21.3288C157.739 21.5121 158.206 21.7997 158.619 22.1918C159.033 22.5838 159.359 23.093 159.597 23.7195C159.836 24.3416 159.955 25.098 159.955 25.9886V26.6662H152.151V25.2344H158.082C158.082 24.7315 157.98 24.2862 157.776 23.8984C157.571 23.5064 157.283 23.1974 156.913 22.9716C156.546 22.7457 156.116 22.6328 155.621 22.6328C155.085 22.6328 154.616 22.7649 154.215 23.0291C153.819 23.2891 153.512 23.63 153.295 24.0518C153.082 24.4695 152.975 24.9233 152.975 25.4134V26.532C152.975 27.1882 153.09 27.7464 153.32 28.2067C153.555 28.6669 153.881 29.0185 154.298 29.2614C154.716 29.5 155.204 29.6193 155.762 29.6193C156.124 29.6193 156.455 29.5682 156.753 29.4659C157.051 29.3594 157.309 29.2017 157.526 28.9929C157.744 28.7841 157.91 28.5263 158.025 28.2195L159.834 28.5455C159.689 29.0781 159.429 29.5447 159.054 29.9453C158.683 30.3416 158.217 30.6506 157.654 30.8722C157.096 31.0895 156.459 31.1982 155.743 31.1982Z" fill="white"/>
<defs>
<clipPath id="clip0_24_3540">
<rect width="20" height="20" fill="white" transform="translate(24 14)"/>
</clipPath>
</defs>
</svg>
