<svg width="45" height="41" viewBox="0 0 45 41" fill="none" xmlns="http://www.w3.org/2000/svg">
<path d="M15.1078 0C15.9487 0 16.7342 0.121706 17.4645 0.365117C18.2168 0.586399 18.8807 0.907258 19.456 1.32769C20.0535 1.726 20.5514 2.21282 20.9497 2.78816C21.3701 3.34136 21.6799 3.93882 21.8791 4.58054C22.1225 5.44354 22.0782 6.15165 21.7463 6.70485C21.4365 7.25805 21.005 7.63423 20.4518 7.83339C19.9207 8.03254 19.3564 8.03254 18.759 7.83339C18.1615 7.61211 17.719 7.16954 17.4313 6.5057C17.1436 5.93036 16.8117 5.47673 16.4355 5.14481C16.0593 4.81289 15.6168 4.6248 15.1078 4.58054C14.9087 4.55841 14.6653 4.59161 14.3776 4.68012C14.1121 4.7465 13.8465 4.86821 13.581 5.04523C13.3376 5.20013 13.1163 5.42141 12.9171 5.70908C12.7401 5.97462 12.6516 6.28441 12.6516 6.63847C12.6516 7.25806 12.8618 7.9219 13.2822 8.63001C13.7248 9.31598 14.2669 10.002 14.9087 10.6879L15.307 11.1194C15.8159 11.6948 16.3249 12.2812 16.8338 12.8786C17.3428 13.4761 17.8075 14.1067 18.2279 14.7706C18.6483 15.4344 18.9803 16.1425 19.2237 16.8949C19.4892 17.6473 19.622 18.4549 19.622 19.3179C19.622 20.6014 19.3454 21.8074 18.7922 22.9359C18.239 24.0644 17.4866 25.0491 16.5351 25.89C15.6057 26.7309 14.5325 27.3947 13.3154 27.8816C12.0984 28.3684 10.826 28.6118 9.49832 28.6118C8.23701 28.6118 7.01996 28.4016 5.84716 27.9811C4.69649 27.5828 3.6786 27.0075 2.79347 26.2551C1.93047 25.4806 1.23343 24.5623 0.70235 23.5002C0.193401 22.438 -0.0389457 21.2431 0.00531077 19.9154C0.00531077 19.2958 0.13808 18.7758 0.403619 18.3554C0.691286 17.9128 1.03427 17.5919 1.43258 17.3928C1.85302 17.1715 2.29558 17.0719 2.76027 17.094C3.24709 17.094 3.6786 17.2158 4.05478 17.4592C4.45308 17.7026 4.76288 18.0677 4.98416 18.5545C5.20544 19.0192 5.28289 19.6056 5.21651 20.3137C5.21651 20.9112 5.31608 21.4422 5.51524 21.9069C5.73652 22.3716 6.03525 22.7699 6.41143 23.1019C6.80974 23.4117 7.26337 23.6551 7.77232 23.8321C8.30339 24.0091 8.86766 24.0976 9.46512 24.0976C9.9962 24.0976 10.5273 23.9981 11.0584 23.7989C11.6116 23.5997 12.0984 23.3231 12.5188 22.9691C12.9614 22.5929 13.3154 22.1393 13.581 21.6082C13.8465 21.055 13.9793 20.4465 13.9793 19.7826C13.9793 18.7869 13.6806 17.8575 13.0831 16.9945C12.4856 16.1315 11.7775 15.2463 10.9588 14.3391C10.4941 13.808 10.0294 13.2659 9.5647 12.7127C9.10001 12.1595 8.67957 11.5952 8.30339 11.0199C7.94934 10.4224 7.65061 9.81386 7.4072 9.19427C7.18592 8.55256 7.07528 7.86658 7.07528 7.13635C7.07528 6.82656 7.0974 6.51676 7.14166 6.20697C7.20805 5.87504 7.29656 5.54312 7.4072 5.2112C7.67274 4.37032 8.07105 3.62903 8.60212 2.98731C9.1332 2.34559 9.74173 1.80345 10.4277 1.36089C11.1137 0.918322 11.855 0.586399 12.6516 0.365117C13.4703 0.121706 14.2891 0 15.1078 0Z" fill="white"/>
<path d="M40.9427 29.8297C41.0976 29.2765 41.4185 28.9003 41.9053 28.7012C42.4143 28.502 42.9122 28.4578 43.399 28.5684C43.9079 28.6569 44.3284 28.8893 44.6603 29.2654C44.9922 29.6416 45.0807 30.1174 44.9258 30.6927C44.6382 31.7106 44.2288 32.64 43.6977 33.4809C43.1888 34.2996 42.5802 35.0077 41.8721 35.6052C41.164 36.1805 40.3785 36.6341 39.5155 36.9661C38.6525 37.2759 37.7342 37.4308 36.7605 37.4308C35.986 37.4308 35.289 37.3312 34.6694 37.132C33.6736 38.172 32.534 38.9133 31.2506 39.3559C29.9893 39.8206 28.728 40.0529 27.4667 40.0529C26.8028 40.0529 26.15 39.9866 25.5083 39.8538C24.8887 39.7431 24.3023 39.5661 23.7491 39.3227C23.1959 39.1014 22.687 38.8248 22.2223 38.4929C21.7797 38.161 21.4146 37.7848 21.1269 37.3644C20.9942 38.0503 20.7507 38.5925 20.3967 38.9908C20.0648 39.4112 19.6775 39.6989 19.235 39.8538C18.8145 40.0087 18.383 40.0419 17.9405 39.9534C17.4979 39.887 17.1328 39.71 16.8451 39.4223C16.5353 39.1568 16.3251 38.7916 16.2145 38.3269C16.1038 37.8623 16.1702 37.309 16.4136 36.6673L25.11 12.0718C25.3313 11.3195 25.7185 10.7662 26.2717 10.4122C26.8249 10.0581 27.3781 9.88112 27.9314 9.88112C28.5067 9.85899 29.0046 10.0028 29.425 10.3126C29.8676 10.6224 30.0889 11.0539 30.0889 11.6071C31.0404 11.1424 31.9255 10.899 32.7442 10.8769C33.563 10.8548 34.1936 10.8658 34.6362 10.9101C35.3664 10.9765 36.0524 11.1535 36.6941 11.4412C37.358 11.7288 37.9333 12.1161 38.4201 12.6029C38.9291 13.0897 39.3274 13.6761 39.6151 14.3621C39.9248 15.0259 40.0797 15.7783 40.0797 16.6192C40.0797 17.2609 39.9912 17.9137 39.8142 18.5775C39.6372 19.2414 39.3827 19.8831 39.0508 20.5027C38.7189 21.1223 38.3206 21.6976 37.8559 22.2287C37.3912 22.7597 36.8822 23.2134 36.329 23.5896C37.015 24.3198 37.5018 25.1164 37.7895 25.9794C38.0993 26.8203 38.2652 27.6722 38.2874 28.5352C38.3095 29.3982 38.1988 30.2391 37.9554 31.0578C37.7342 31.8766 37.4354 32.6068 37.0592 33.2485H37.0924C38.0218 33.2485 38.8074 32.9387 39.4491 32.3191C40.0908 31.6995 40.5887 30.8697 40.9427 29.8297ZM29.0599 20.2039C29.3918 20.0712 29.7348 20.0048 30.0889 20.0048C30.4429 19.9827 30.7748 19.9937 31.0846 20.038C31.4165 20.0822 31.7042 20.1597 31.9476 20.2703C32.2132 20.381 32.4013 20.4805 32.5119 20.569C32.9102 20.4142 33.2421 20.2039 33.5077 19.9384C33.7732 19.6507 33.9834 19.3631 34.1383 19.0754C34.2932 18.7656 34.4039 18.4669 34.4702 18.1792C34.5366 17.8694 34.5698 17.5928 34.5698 17.3494C34.5698 16.7962 34.3707 16.3647 33.9724 16.0549C33.574 15.723 33.0872 15.5349 32.5119 15.4906C32.1357 15.4906 31.7485 15.5349 31.3502 15.6234C30.9519 15.7119 30.5535 15.8557 30.1552 16.0549C29.7791 16.254 29.425 16.5085 29.0931 16.8183C28.7612 17.1281 28.4956 17.4932 28.2965 17.9137L24.3134 28.9335C24.7338 28.7565 25.2317 28.6237 25.807 28.5352C26.3824 28.4467 26.9356 28.4024 27.4667 28.4024C28.5952 28.4246 29.591 28.6348 30.454 29.0331C31.3391 29.4093 32.0804 29.885 32.6779 30.4604C33.054 29.3982 33.1536 28.5131 32.9766 27.805C32.7996 27.0969 32.3902 26.6654 31.7485 26.5105C31.4387 26.6211 31.0625 26.6875 30.6199 26.7096C30.1774 26.7318 29.7237 26.6764 29.259 26.5437C28.8165 26.4109 28.396 26.1786 27.9977 25.8466C27.6216 25.4926 27.3339 25.0168 27.1347 24.4194C27.0241 23.9547 27.002 23.501 27.0684 23.0585C27.1347 22.5938 27.2564 22.1733 27.4335 21.7972C27.6326 21.421 27.876 21.1001 28.1637 20.8346C28.4514 20.5469 28.7501 20.3367 29.0599 20.2039ZM27.1015 35.8707C27.699 35.8707 28.3297 35.7379 28.9935 35.4724C29.6574 35.2069 30.2438 34.7864 30.7527 34.2111C30.3101 33.7685 29.8454 33.3924 29.3586 33.0826C28.8939 32.7506 28.3186 32.5847 27.6326 32.5847C26.9909 32.5847 26.4598 32.7174 26.0394 32.983C25.6411 33.2485 25.3755 33.6026 25.2428 34.0451C25.1985 34.1558 25.1764 34.3217 25.1764 34.543C25.1764 34.9192 25.3424 35.2401 25.6743 35.5056C26.0062 35.749 26.482 35.8707 27.1015 35.8707Z" fill="white"/>
</svg>
