<svg width="112" height="112" viewBox="0 0 112 112" fill="none" xmlns="http://www.w3.org/2000/svg">
<g filter="url(#filter0_dd_2_5258)">
<rect x="20" width="72" height="72" rx="36" fill="#4B4EFC"/>
<path d="M62.7025 43.9083L56 37.2059L49.2975 43.9083L44.7427 39.3535L51.4437 32.6525L51.973 32.1181L56 28.0913L56.2569 28.3506L56.533 28.624L60.5599 32.651L60.5574 32.6535L67.2573 39.3535L62.7025 43.9083ZM46.8641 39.3535L49.2976 41.7871L56 35.0845L62.7025 41.7871L65.1359 39.3535L58.4311 32.6486L58.4336 32.6462L56.0049 30.2174L56.0025 30.2198L55.9978 30.2148L53.5666 32.6462L53.0364 33.1814L46.8641 39.3535Z" fill="white"/>
</g>
<defs>
<filter id="filter0_dd_2_5258" x="0" y="0" width="112" height="112" filterUnits="userSpaceOnUse" color-interpolation-filters="sRGB">
<feFlood flood-opacity="0" result="BackgroundImageFix"/>
<feColorMatrix in="SourceAlpha" type="matrix" values="0 0 0 0 0 0 0 0 0 0 0 0 0 0 0 0 0 0 127 0" result="hardAlpha"/>
<feMorphology radius="6" operator="erode" in="SourceAlpha" result="effect1_dropShadow_2_5258"/>
<feOffset dy="8"/>
<feGaussianBlur stdDeviation="5"/>
<feColorMatrix type="matrix" values="0 0 0 0 0.0627451 0 0 0 0 0.0941176 0 0 0 0 0.156863 0 0 0 0.1 0"/>
<feBlend mode="normal" in2="BackgroundImageFix" result="effect1_dropShadow_2_5258"/>
<feColorMatrix in="SourceAlpha" type="matrix" values="0 0 0 0 0 0 0 0 0 0 0 0 0 0 0 0 0 0 127 0" result="hardAlpha"/>
<feMorphology radius="5" operator="erode" in="SourceAlpha" result="effect2_dropShadow_2_5258"/>
<feOffset dy="20"/>
<feGaussianBlur stdDeviation="12.5"/>
<feColorMatrix type="matrix" values="0 0 0 0 0.0627451 0 0 0 0 0.0941176 0 0 0 0 0.156863 0 0 0 0.1 0"/>
<feBlend mode="normal" in2="effect1_dropShadow_2_5258" result="effect2_dropShadow_2_5258"/>
<feBlend mode="normal" in="SourceGraphic" in2="effect2_dropShadow_2_5258" result="shape"/>
</filter>
</defs>
</svg>
