<svg width="58" height="58" viewBox="0 0 58 58" fill="none" xmlns="http://www.w3.org/2000/svg">
<g clip-path="url(#clip0_2_5248)">
<path d="M0 0H58V58H0V0ZM53.2512 44.1706C52.8271 41.5171 51.098 39.2986 45.9922 37.2233C44.2178 36.3932 42.2349 35.8078 41.6494 34.4665C41.4319 33.6726 41.3939 33.2394 41.5353 32.7664C41.9032 31.1986 43.7447 30.7364 45.1983 31.1714C46.1426 31.4632 47.0108 32.1809 47.5582 33.3428C50.0594 31.7097 50.0594 31.7097 51.7976 30.624C51.1469 29.6144 50.8261 29.1704 50.3821 28.7463C48.8614 27.0371 46.8332 26.1689 43.5381 26.245L41.8289 26.4625C40.1958 26.8594 38.6389 27.7276 37.6946 28.8894C34.9468 32.0051 35.7407 37.4426 39.0721 39.6992C42.3672 42.1624 47.1902 42.7007 47.8137 45.0243C48.3901 47.8573 45.7094 48.7635 43.0559 48.4318C41.1021 47.9968 40.0164 47.0163 38.8165 45.2038L34.3976 47.7431C34.8979 48.9049 35.4833 49.4051 36.3515 50.4237C40.5529 54.6632 51.069 54.4457 52.9558 47.9968C53.0211 47.7793 53.5322 46.2876 53.1353 44.0129L53.2512 44.1706ZM31.5393 26.6583H26.1109C26.1109 31.3399 26.0819 35.9944 26.0819 40.687C26.0819 43.6613 26.2323 46.3982 25.752 47.2392C24.9491 48.9012 22.9009 48.6928 21.9657 48.401C21.0123 47.9298 20.5211 47.2772 19.9647 46.3329C19.8034 46.0774 19.691 45.8617 19.6529 45.8617L15.2449 48.5804C15.9808 50.1011 17.0574 51.4134 18.4458 52.2435C20.5139 53.4796 23.2888 53.8766 26.1961 53.2259C28.0847 52.6785 29.7178 51.5547 30.566 49.8184C31.8021 47.5709 31.5375 44.8159 31.5284 41.7274C31.5574 36.7611 31.5284 31.7967 31.5284 26.7924L31.5393 26.6583Z" fill="#F3F4F6"/>
</g>
<defs>
<clipPath id="clip0_2_5248">
<rect width="58" height="58" fill="white"/>
</clipPath>
</defs>
</svg>
