<svg width="60" height="60" viewBox="0 0 60 60" fill="none" xmlns="http://www.w3.org/2000/svg">
<path d="M42.823 0C40.4887 0.020625 38.1749 0.3525 35.9287 1.005L35.773 1.05563C34.3649 0.81 32.9305 0.675 31.5055 0.645C28.5562 0.594375 26.0249 1.30687 23.9849 2.49937C21.973 1.8075 17.803 0.594375 13.408 0.84C10.3537 1.005 7.0124 1.93313 4.5299 4.55062C2.0699 7.15875 0.763028 11.2012 1.0349 16.71C1.11178 18.2231 1.54303 20.6925 2.2649 23.9044C2.9774 27.1087 3.98428 30.8587 5.24428 34.2862C6.50428 37.7044 7.87865 40.7794 10.0293 42.8681C11.1018 43.9125 12.5868 44.8031 14.3343 44.7262C15.5568 44.6756 16.6593 44.1394 17.6174 43.3481C18.0843 43.9631 18.5849 44.2256 19.033 44.4713C19.6105 44.7844 20.1562 44.9981 20.7337 45.1369C21.7687 45.3994 23.5368 45.7425 25.6068 45.39C26.3099 45.2719 27.0524 45.0394 27.7949 44.7169C27.8249 45.5363 27.8549 46.3462 27.883 47.1675C27.9899 49.755 28.0612 52.1475 28.8299 54.2475C28.9574 54.5906 29.3005 56.3475 30.6468 57.9094C32.0043 59.4712 34.6387 60.4387 37.6574 59.7937C39.778 59.3438 42.4818 58.5244 44.2799 55.9669C46.0574 53.4469 46.858 49.8244 47.0155 43.9444C47.053 43.6219 47.1037 43.3594 47.1505 43.1044L47.5705 43.1437H47.6212C49.8862 43.2412 52.348 42.9188 54.4087 41.9606C56.2237 41.1206 57.6018 40.2712 58.6068 38.7581C58.8524 38.385 59.1337 37.9275 59.2049 37.1456C59.2818 36.375 58.8318 35.1525 58.0893 34.5881C56.6062 33.4556 55.6687 33.885 54.6618 34.1006C53.6774 34.3162 52.6687 34.4306 51.6637 34.4606C54.553 29.5987 56.623 24.4237 57.8062 19.8506C58.5093 17.145 58.9012 14.655 58.9293 12.4781C58.9687 10.3013 58.7849 8.3775 57.4837 6.70875C53.4018 1.50375 47.668 0.05625 43.2355 0.009375C43.0987 0.009375 42.9637 0.009375 42.8249 0.009375L42.823 0ZM42.7049 1.60313C46.8955 1.56375 52.2543 2.73563 56.1018 7.65563C56.9718 8.76 57.2268 10.3706 57.1968 12.3637C57.1668 14.3569 56.7974 16.7288 56.1224 19.3369C54.8249 24.3975 52.3518 30.2738 48.8868 35.5594C49.0049 35.6475 49.1399 35.7244 49.2768 35.775C49.9987 36.0769 51.6487 36.33 54.9487 35.6569C55.7793 35.4788 56.3868 35.3644 57.0205 35.8425C57.3337 36.105 57.4987 36.4969 57.478 36.9075C57.4405 37.2094 57.3337 37.5019 57.1462 37.7475C56.5105 38.7019 55.2543 39.6131 53.6418 40.365C52.2168 41.0269 50.1637 41.37 48.3599 41.3906C47.443 41.4 46.603 41.3306 45.8868 41.1056L45.8493 41.0981C45.5737 43.7438 44.9418 48.9788 44.5293 51.36C44.1993 53.2819 43.6218 54.8175 42.5193 55.9594C41.4149 57.1125 39.8624 57.795 37.7624 58.245C35.1655 58.8019 33.2793 58.2056 32.0605 57.18C30.8418 56.1544 30.283 54.7875 29.9512 53.9569C29.7187 53.3813 29.6005 52.6387 29.4843 51.6413C29.3662 50.6456 29.2893 49.4344 29.2293 48.0581C29.1524 45.9581 29.1224 43.8581 29.1524 41.7488C28.0705 42.7463 26.7224 43.3988 25.2749 43.6537C23.548 43.9463 22.0143 43.6538 21.0974 43.4288C20.6474 43.3106 20.2068 43.1456 19.798 42.9206C19.3687 42.6956 18.9674 42.4425 18.6955 41.9325C18.538 41.64 18.4912 41.3006 18.5587 40.9781C18.6355 40.6462 18.8305 40.3631 19.0968 40.1475C19.5937 39.7444 20.2499 39.5231 21.2343 39.3169C23.0324 38.9437 23.6662 38.6925 24.0468 38.3869C24.3693 38.1338 24.7424 37.6069 25.3837 36.8344C25.3837 36.8063 25.3837 36.7669 25.3743 36.7369C24.2137 36.6994 23.0793 36.3975 22.0537 35.8387C21.6843 36.2288 19.7587 38.2612 17.4262 41.0737C16.4493 42.2438 15.3655 42.9188 14.2143 42.9694C13.0724 43.0163 12.0337 42.4425 11.1562 41.5912C9.39928 39.8812 7.99115 36.9412 6.77053 33.6206C5.5499 30.3 4.56365 26.6006 3.85115 23.4563C3.14803 20.3006 2.72803 17.7619 2.66803 16.5412C2.40553 11.3362 3.62615 7.83187 5.7149 5.61375C7.80365 3.39562 10.6668 2.56687 13.4605 2.40188C18.4705 2.11875 23.2349 3.86625 24.193 4.2375C26.0474 2.9775 28.4399 2.1975 31.4286 2.24437C32.8462 2.265 34.2505 2.44875 35.6287 2.79187L35.6793 2.76188C36.2849 2.5575 36.8999 2.37187 37.5243 2.23687C39.2249 1.83375 40.9612 1.62937 42.6993 1.60125L42.7049 1.60313ZM43.0855 3.27187H42.7162C41.2912 3.28875 39.853 3.4575 38.458 3.75938C41.5724 5.1375 43.9255 7.25437 45.5849 9.38438C46.738 10.8488 47.6849 12.4594 48.4068 14.1788C48.6918 14.8444 48.8774 15.3994 48.9749 15.8288C49.033 16.0444 49.063 16.2281 49.0818 16.4137C49.0818 16.5112 49.0912 16.6106 49.0424 16.7756C49.0424 16.785 49.033 16.8056 49.033 16.815C49.1137 19.0031 48.5662 20.4844 48.4949 22.575C48.448 24.09 48.838 25.8675 48.9355 27.81C49.0237 29.6344 48.8005 31.6369 47.6174 33.6094C47.7149 33.7275 47.803 33.8438 47.9005 33.9712C51.0355 29.0287 53.3005 23.5706 54.5024 18.9113C55.1474 16.4006 55.4868 14.1263 55.5168 12.3319C55.5468 10.5338 55.2149 9.225 54.7837 8.67938C51.4237 4.39125 46.8843 3.29625 43.0837 3.27L43.0855 3.27187ZM31.1024 3.915C28.1549 3.92438 26.0343 4.815 24.4255 6.15188C22.7624 7.53937 21.6505 9.42375 20.9287 11.3663C20.0587 13.6612 19.7568 15.8869 19.6387 17.4019L19.678 17.3813C20.5687 16.8844 21.7387 16.3763 22.9987 16.0931C24.2493 15.7987 25.6068 15.7106 26.8255 16.1906C28.0574 16.6575 29.0624 17.7806 29.4337 19.47C31.1943 27.615 28.888 30.6431 28.0387 32.9269C27.7162 33.7575 27.433 34.5975 27.208 35.4562C27.3149 35.4356 27.4237 35.4056 27.5305 35.3963C28.1362 35.3494 28.603 35.5444 28.8787 35.6606C29.7393 36.0206 30.3243 36.7631 30.6468 37.6125C30.7237 37.8375 30.7818 38.07 30.8212 38.325C30.8512 38.4225 30.8718 38.5294 30.8718 38.6381C30.7743 41.7525 30.7818 44.8687 30.8999 47.9831C30.9599 49.3312 31.048 50.5125 31.1549 51.45C31.2618 52.3781 31.408 53.0906 31.5074 53.3344C31.828 54.135 32.2968 55.1794 33.148 55.8919C33.988 56.6063 35.1974 57.075 37.4155 56.6063C39.3374 56.1863 40.5205 55.6181 41.3099 54.7987C42.103 53.9681 42.5699 52.8263 42.8718 51.0788C43.3312 48.4519 44.2387 40.8337 44.3474 39.4087C44.3005 38.3231 44.4543 37.4944 44.8068 36.8588C45.1574 36.2138 45.7049 35.8144 46.1849 35.5988C46.4174 35.4919 46.6424 35.4244 46.828 35.3644C46.633 35.0925 46.4287 34.8188 46.2224 34.5544C45.5399 33.7238 44.9718 32.7975 44.5518 31.8112C44.3568 31.3987 44.1412 30.9881 43.9068 30.5981C43.5768 30.0037 43.1568 29.25 42.7162 28.4006C41.8368 26.7206 40.8805 24.6713 40.3818 22.6781C39.8849 20.685 39.8174 18.6262 41.0868 17.1806C42.2099 15.8906 44.1918 15.3562 47.1487 15.6581C47.0605 15.3937 47.0137 15.1687 46.8655 14.8275C46.1924 13.245 45.313 11.76 44.2574 10.4119C41.7468 7.2 37.6743 4.01438 31.3968 3.9075L31.1024 3.915ZM14.503 4.0425C14.1899 4.0425 13.8674 4.05187 13.5562 4.0725C11.0268 4.22062 8.64365 4.95 6.93365 6.7575C5.22553 8.57438 4.10428 11.5331 4.34615 16.4456C4.39678 17.3831 4.79615 19.98 5.48803 23.0756C6.18365 26.1731 7.16803 29.8163 8.35115 33.0375C9.53053 36.2494 10.9593 39.0525 12.3262 40.38C13.0087 41.0344 13.603 41.3081 14.1412 41.2894C14.6793 41.2594 15.3337 40.9462 16.1343 39.99C17.5893 38.2331 19.0949 36.5325 20.6568 34.8731C18.4087 32.91 17.3062 29.9438 17.7468 26.9925C17.9999 25.1475 18.0393 23.4169 17.9999 22.05C17.9718 20.7225 17.8818 19.845 17.8818 19.2881C17.8818 19.2675 17.8818 19.2581 17.8818 19.2375V19.2281L17.8724 19.2113C17.8724 16.3294 18.3824 13.4794 19.3574 10.7737C20.0605 8.90625 21.0974 7.02375 22.6574 5.48812C21.1255 4.98 18.3993 4.22062 15.4518 4.0725C15.1387 4.05187 14.8162 4.0425 14.5049 4.0425H14.503ZM45.4968 17.2444C43.7999 17.2744 42.8512 17.715 42.3449 18.2794C41.6399 19.0912 41.5724 20.5163 42.013 22.275C42.4499 24.0319 43.3612 25.995 44.2105 27.6281C44.6305 28.4475 45.0412 29.1806 45.3712 29.775C45.7143 30.3806 45.958 30.8006 46.1043 31.1719C46.2412 31.5037 46.3987 31.7962 46.5543 32.07C47.2087 30.6825 47.3268 29.325 47.2574 27.9C47.1693 26.1431 46.7605 24.345 46.828 22.53C46.8974 20.4 47.3174 19.0125 47.3474 17.3719C46.7399 17.295 46.1155 17.2444 45.5005 17.2444H45.4968ZM24.913 17.5406C24.3955 17.5406 23.878 17.6081 23.3699 17.7263C22.363 17.9719 21.3974 18.3413 20.488 18.8494C20.1862 19.0144 19.8937 19.2019 19.6199 19.4175L19.5599 19.4644C19.5805 19.8375 19.648 20.715 19.678 22.0238C19.708 23.4488 19.678 25.2638 19.4062 27.2288C18.8005 31.5056 21.9055 35.0419 25.5487 35.0513C25.7643 34.1719 26.113 33.2812 26.4655 32.3456C27.4799 29.61 29.473 27.6188 27.793 19.8263C27.5212 18.5569 26.9737 18.0394 26.2199 17.7469C25.7999 17.5988 25.363 17.5312 24.913 17.5425V17.5406ZM44.7074 18.0469H44.8349C44.9905 18.0562 45.148 18.0675 45.283 18.105C45.4105 18.135 45.5287 18.1744 45.6262 18.2419C45.7237 18.3 45.7912 18.3975 45.8118 18.5138V18.5344C45.8118 18.6525 45.7818 18.7687 45.7237 18.8775C45.6468 19.0125 45.5587 19.14 45.4518 19.2469C45.1968 19.53 44.8537 19.7175 44.4843 19.7737C44.1224 19.8244 43.7624 19.7269 43.4587 19.5206C43.3405 19.4306 43.2243 19.3331 43.1362 19.2262C43.048 19.1381 42.9993 19.0219 42.9787 18.9037C42.9712 18.7894 42.9993 18.6713 43.0762 18.5831C43.1662 18.4931 43.2637 18.4163 43.3705 18.3581C43.6124 18.2213 43.9349 18.1238 44.308 18.0731C44.443 18.0562 44.5799 18.045 44.7074 18.0356V18.0469ZM25.1549 18.4669C25.2824 18.4669 25.4305 18.4762 25.5674 18.495C25.9574 18.555 26.2893 18.6525 26.5518 18.8081C26.6793 18.8681 26.7974 18.9656 26.8837 19.0725C26.9812 19.1906 27.028 19.335 27.0205 19.4925C26.9905 19.6369 26.9305 19.7756 26.833 19.8825C26.7262 20.01 26.6099 20.1169 26.473 20.205C26.1505 20.4394 25.7512 20.5369 25.3499 20.4881C24.9468 20.4206 24.5774 20.2256 24.3055 19.9237C24.1874 19.7963 24.0899 19.6594 24.0112 19.5131C23.923 19.3762 23.8855 19.2206 23.9043 19.0631C23.9437 18.8006 24.1687 18.6525 24.3843 18.5756C24.6299 18.495 24.8924 18.4688 25.1549 18.4781V18.4669ZM47.803 36.825H47.7937C47.4337 36.9619 47.1318 37.0125 46.8768 37.1306C46.6143 37.2281 46.4062 37.4231 46.2824 37.665C46.1155 37.95 45.9899 38.4581 46.0274 39.3244C46.1343 39.405 46.2618 39.4613 46.4005 39.5025C46.8205 39.63 47.5424 39.7181 48.343 39.7069C49.9349 39.6862 51.898 39.3169 52.9424 38.8275C53.7918 38.4375 54.5924 37.9106 55.2955 37.2956C51.8099 38.0081 49.8487 37.8225 48.6355 37.3256C48.343 37.1981 48.0599 37.0312 47.8049 36.825H47.803ZM27.7255 37.0594H27.6749C27.5399 37.0687 27.3524 37.1194 26.9718 37.53C26.1018 38.505 25.7999 39.12 25.0874 39.6881C24.3655 40.2637 23.4374 40.5675 21.5718 40.9481C20.9868 41.0662 20.6437 41.2013 20.4187 41.3081C20.4862 41.3681 20.4862 41.3888 20.593 41.4356C20.8687 41.5931 21.2174 41.7206 21.5024 41.7975C22.303 41.9925 23.6099 42.2269 24.988 41.9925C26.3549 41.7581 27.7799 41.1019 29.0024 39.3956C29.218 39.1031 29.2349 38.6625 29.0605 38.1938C28.8862 37.7363 28.5037 37.3256 28.2412 37.2188C28.0743 37.1381 27.898 37.0913 27.7237 37.0613L27.7255 37.0594Z" fill="#F3F4F6"/>
</svg>
