<svg width="50" height="50" viewBox="0 0 50 50" fill="none" xmlns="http://www.w3.org/2000/svg">
<g clip-path="url(#clip0_2_5254)">
<path d="M43.5141 32.9421V35.3593H47.6406C48.4875 35.3593 49.9359 34.7078 49.9844 32.8687V31.9328C49.9844 30.3703 48.7797 29.4421 47.6406 29.4421H45.5813V28.3187H49.6578V25.8765H45.7437C44.7344 25.8765 43.3844 26.764 43.3844 28.4078V29.2546C43.3844 30.8984 44.7188 31.7453 45.7437 31.7453C48.5844 31.7609 45.0594 31.7453 47.6891 31.7453V32.925L43.5141 32.9421ZM21.3875 32.3484C21.3875 32.3484 23.6016 32.1453 23.6016 29.125C23.6016 26.0968 20.9234 25.8125 20.9234 25.8125H16.0969V35.3578H18.5219V33.0546L20.6219 35.3578H24.2031L21.3875 32.3484ZM20.4516 30.3953H18.5234V28.214H20.4688C20.4688 28.214 21.0141 28.425 21.0141 29.2968C21.0141 30.1687 20.4531 30.3953 20.4531 30.3953H20.4516ZM29.5812 25.8796H27.1234C25.3656 25.8796 24.7719 27.5718 24.7719 28.3703V35.3609H27.2375V33.6921H29.5484V35.3609H31.9328V28.3703C31.9328 26.3359 30.1906 25.8796 29.5812 25.8796ZM29.5484 30.9812H27.2203V28.6703C27.2203 28.6703 27.2203 28.1406 27.9938 28.1406H28.8406C29.5156 28.1406 29.5328 28.6703 29.5328 28.6703V30.9812H29.5484ZM33.0563 25.8796H35.6203V35.3609H33.0563V25.8796ZM39.2172 32.9109V25.8796H36.6703V35.3609H42.6688V32.9109H39.2172ZM0.8875 35.3593H10.8562C10.8562 35.3593 8.95156 26.139 15.2672 22.3953C16.6422 21.6875 21.0203 19.0343 28.1984 24.6578C28.4188 24.4625 28.6375 24.3 28.6375 24.3C28.6375 24.3 22.0703 17.35 14.7625 18.1234C11.0844 18.4734 6.56719 22.0218 3.91406 26.7093C1.26094 31.3968 0.885937 35.3593 0.885937 35.3593H0.8875ZM0.8875 35.3593H10.8562C10.8562 35.3593 8.95156 26.139 15.2672 22.3953C16.6422 21.6875 21.0203 19.0343 28.1984 24.6578C28.4188 24.4625 28.6375 24.3 28.6375 24.3C28.6375 24.3 22.0703 17.35 14.7625 18.1234C11.0844 18.4734 6.56719 22.0218 3.91406 26.7093C1.26094 31.3968 0.885937 35.3593 0.885937 35.3593H0.8875ZM0.8875 35.3593H10.8562C10.8562 35.3593 8.95156 26.139 15.2672 22.3953C16.6422 21.6875 21.0203 19.0343 28.1984 24.6578C28.4188 24.4625 28.6375 24.3 28.6375 24.3C28.6375 24.3 22.0703 17.35 14.7625 18.1234C11.0766 18.4734 6.55156 22.0218 3.89844 26.7093C1.25312 31.3968 0.8875 35.3593 0.8875 35.3593ZM21.6641 18.8796L21.7203 17.9765C21.6063 17.9109 21.2891 17.7484 20.4922 17.5125L20.4437 18.3921C20.8594 18.539 21.2656 18.7015 21.6641 18.8812V18.8796ZM20.4672 21.7125L20.4187 22.5593C20.8344 22.575 21.2484 22.625 21.6641 22.7218L21.7203 21.8921C21.2891 21.7937 20.8734 21.7453 20.4672 21.7125ZM15.7953 17.5375H15.9172L15.6656 16.7234C15.275 16.7234 14.8766 16.7484 14.4531 16.7968L14.6969 17.5937C15.0625 17.5531 15.4297 17.5375 15.7953 17.5375ZM16.3984 22.4687L16.6922 23.389C17.0578 23.2015 17.425 23.039 17.7906 22.925L17.5141 22.0375C17.0828 22.1671 16.7172 22.314 16.3984 22.4687ZM10.6687 18.9453L10.0984 18.0171C9.78125 18.1968 9.45625 18.3828 9.11406 18.5953L9.7 19.5312C10.025 19.3203 10.3422 19.1156 10.6687 18.9453ZM13.2563 24.9671L13.8672 25.9359C14.0781 25.6015 14.3313 25.2937 14.6078 24.9843L14.0375 24.0734C13.7531 24.3578 13.4844 24.6593 13.2563 24.9687V24.9671ZM11.4266 29.2812L12.4516 30.1437C12.5 29.614 12.5906 29.0937 12.7125 28.5734L11.8094 27.8078C11.6391 28.3046 11.5328 28.8 11.4266 29.2812ZM5.9 22.925L4.99687 22.0953C4.67188 22.4296 4.35469 22.7625 4.06875 23.0968L5.0375 23.9843C5.30625 23.6187 5.59062 23.2593 5.9 22.9265V22.925ZM2.08281 28.9062L0.634375 28.3453C0.390625 28.9234 0.129687 29.5906 0 29.9562L1.44844 30.5171C1.61875 30.0609 1.87969 29.4015 2.08281 28.9062ZM11.2391 32.6828C11.2641 33.3906 11.3281 33.9687 11.3859 34.375L12.9078 34.9453C12.7937 34.425 12.6797 33.839 12.5984 33.2031L11.2391 32.6828Z" fill="#F3F4F6"/>
</g>
<defs>
<clipPath id="clip0_2_5254">
<rect width="50" height="50" fill="white"/>
</clipPath>
</defs>
</svg>
