<?xml version="1.0" encoding="UTF-8"?>
<svg xmlns="http://www.w3.org/2000/svg" xmlns:xlink="http://www.w3.org/1999/xlink" viewBox="0 0 80 80" width="80px" height="80px">
<g id="surface135399499">
<path style=" stroke:none;fill-rule:nonzero;fill:rgb(100%,100%,100%);fill-opacity:1;" d="M 40 57.800781 C 17.195312 57.800781 0 50.339844 0 40 C 0 29.660156 17.195312 22 40 22 C 62.804688 22 80 29.660156 80 40 C 80 50.339844 62.804688 57.800781 40 57.800781 Z M 40 27.863281 C 20.542969 27.863281 5.75 34.394531 5.75 40.125 C 5.75 45.855469 20.542969 52.136719 40 52.136719 C 59.457031 52.136719 74.25 45.605469 74.25 39.875 C 74.25 34.144531 59.457031 27.863281 40 27.863281 Z M 40 27.863281 "/>
<path style=" stroke:none;fill-rule:nonzero;fill:rgb(100%,100%,100%);fill-opacity:1;" d="M 24.804688 76 C 24.800781 76 24.804688 76 24.804688 76 C 22.941406 76 21.242188 75.566406 19.746094 74.714844 C 17.308594 73.320312 15.558594 70.859375 14.683594 67.59375 C 12.390625 59.027344 16.089844 44.628906 24.109375 30.902344 C 33.519531 14.8125 46.015625 4.007812 55.199219 4.007812 C 57.058594 4.007812 58.757812 4.4375 60.253906 5.289062 C 62.6875 6.679688 64.441406 9.140625 65.3125 12.40625 C 67.609375 20.96875 63.90625 35.371094 55.882812 49.097656 C 46.480469 65.1875 33.988281 76 24.804688 76 Z M 55.199219 10.007812 C 49.421875 10.007812 38.378906 18.390625 29.289062 33.933594 C 21.042969 48.042969 18.625 59.75 20.480469 66.039062 C 20.984375 67.738281 21.691406 68.914062 22.722656 69.503906 C 27.445312 72.199219 40.34375 63.804688 50.707031 46.070312 C 58.957031 31.957031 61.625 20.5 59.519531 13.960938 C 58.976562 12.277344 58.308594 11.089844 57.28125 10.503906 C 56.695312 10.167969 56.011719 10.007812 55.199219 10.007812 Z M 55.199219 10.007812 "/>
<path style=" stroke:none;fill-rule:nonzero;fill:rgb(100%,100%,100%);fill-opacity:1;" d="M 55.199219 75.992188 C 46.003906 75.992188 33.511719 65.183594 24.109375 49.097656 C 16.089844 35.371094 12.390625 20.96875 14.683594 12.40625 C 15.558594 9.140625 17.308594 6.679688 19.746094 5.285156 C 21.242188 4.433594 22.941406 4 24.800781 4 C 33.988281 4 46.480469 14.8125 55.882812 30.902344 C 63.90625 44.625 67.605469 59.027344 65.3125 67.59375 C 64.4375 70.859375 62.6875 73.320312 60.253906 74.710938 C 58.757812 75.5625 57.054688 75.992188 55.199219 75.992188 Z M 24.800781 10 C 23.984375 10 23.304688 10.164062 22.71875 10.496094 C 21.691406 11.085938 20.972656 12.257812 20.480469 13.960938 C 18.625 20.375 21.042969 31.957031 29.289062 46.070312 C 38.371094 61.609375 49.414062 69.992188 55.195312 69.992188 C 56.011719 69.992188 56.691406 69.828125 57.277344 69.496094 C 58.304688 68.910156 59.042969 67.742188 59.515625 66.039062 C 61.246094 59.746094 58.953125 48.039062 50.703125 33.929688 C 41.621094 18.386719 30.578125 10 24.800781 10 Z M 24.800781 10 "/>
<path style=" stroke:none;fill-rule:nonzero;fill:rgb(100%,100%,100%);fill-opacity:1;" d="M 47 40 C 47 43.871094 43.871094 47 40 47 C 36.128906 47 33 43.871094 33 40 C 33 36.128906 36.128906 33 40 33 C 43.871094 33 47 36.128906 47 40 Z M 47 40 "/>
<path style=" stroke:none;fill-rule:nonzero;fill:rgb(100%,100%,100%);fill-opacity:1;" d="M 40 48 C 35.589844 48 32 44.410156 32 40 C 32 35.589844 35.589844 32 40 32 C 44.410156 32 48 35.589844 48 40 C 48 44.410156 44.410156 48 40 48 Z M 40 34 C 36.691406 34 34 36.691406 34 40 C 34 43.308594 36.691406 46 40 46 C 43.308594 46 46 43.308594 46 40 C 46 36.691406 43.308594 34 40 34 Z M 40 34 "/>
<path style=" stroke:none;fill-rule:nonzero;fill:rgb(100%,100%,100%);fill-opacity:1;" d="M 40 56.136719 C 18.691406 56.136719 2 49.046875 2 40 C 2 30.953125 18.691406 23.863281 40 23.863281 C 61.308594 23.863281 78 30.953125 78 40 C 78 49.046875 61.308594 56.136719 40 56.136719 Z M 40 25.863281 C 20.484375 25.863281 4 32.339844 4 40 C 4 47.660156 20.484375 54.136719 40 54.136719 C 59.515625 54.136719 76 47.664062 76 40 C 76 32.335938 59.515625 25.863281 40 25.863281 Z M 40 25.863281 "/>
<path style=" stroke:none;fill-rule:nonzero;fill:rgb(100%,100%,100%);fill-opacity:1;" d="M 24.804688 74 C 24.800781 74 24.804688 74 24.804688 74 C 23.292969 74 21.929688 73.65625 20.738281 72.976562 C 18.746094 71.839844 17.359375 69.855469 16.613281 67.074219 C 14.453125 59 18.070312 45.199219 25.835938 31.910156 C 34.757812 16.660156 46.832031 6.007812 55.199219 6.007812 C 56.707031 6.007812 58.074219 6.351562 59.261719 7.027344 C 61.253906 8.164062 62.636719 10.148438 63.382812 12.925781 C 65.546875 20.996094 61.925781 34.800781 54.160156 48.089844 C 45.242188 63.34375 33.171875 74 24.804688 74 Z M 55.199219 8.007812 C 47.628906 8.007812 36.007812 18.484375 27.5625 32.921875 C 20.175781 45.570312 16.550781 59.089844 18.546875 66.558594 C 19.148438 68.804688 20.21875 70.378906 21.730469 71.242188 C 22.613281 71.742188 23.644531 72 24.800781 72 C 32.371094 72 43.992188 61.519531 52.429688 47.078125 C 59.824219 34.425781 63.449219 20.90625 61.449219 13.441406 C 60.847656 11.199219 59.777344 9.625 58.269531 8.765625 C 57.386719 8.261719 56.355469 8.007812 55.199219 8.007812 Z M 55.199219 8.007812 "/>
<path style=" stroke:none;fill-rule:nonzero;fill:rgb(100%,100%,100%);fill-opacity:1;" d="M 55.199219 73.992188 C 46.824219 73.992188 34.75 63.339844 25.835938 48.089844 C 18.070312 34.800781 14.453125 21 16.617188 12.925781 C 17.359375 10.144531 18.746094 8.160156 20.738281 7.023438 C 21.929688 6.34375 23.292969 6 24.800781 6 C 33.171875 6 45.242188 16.65625 54.15625 31.910156 C 61.925781 45.195312 65.542969 58.996094 63.378906 67.074219 C 62.636719 69.855469 61.25 71.839844 59.261719 72.972656 C 58.070312 73.648438 56.707031 73.992188 55.199219 73.992188 Z M 24.800781 8 C 23.644531 8 22.613281 8.257812 21.730469 8.757812 C 20.21875 9.621094 19.148438 11.195312 18.546875 13.441406 C 16.546875 20.910156 20.171875 34.429688 27.5625 47.078125 C 36 61.515625 47.625 71.992188 55.199219 71.992188 C 56.355469 71.992188 57.386719 71.738281 58.269531 71.234375 C 59.777344 70.375 60.847656 68.800781 61.449219 66.558594 C 63.449219 59.089844 59.824219 45.570312 52.433594 32.921875 C 43.992188 18.480469 32.375 8 24.800781 8 Z M 24.800781 8 "/>
</g>
</svg>
