<svg width="49" height="50" viewBox="0 0 49 50" fill="none" xmlns="http://www.w3.org/2000/svg">
<g clip-path="url(#clip0_2_5251)">
<path d="M41.1523 0.66699C47.3432 1.74346 49.1041 5.97124 48.9678 10.4057L49 10.3399L46.2177 46.8679L10.0174 49.3485C7.01159 49.2199 0.303187 48.9488 0.00153125 39.5791L3.35956 33.4541L9.11706 46.9L10.1461 49.2903L15.8714 30.6213L15.8086 30.6381L15.8408 30.5723L34.7349 36.6116L31.8867 25.5176L29.8701 17.5567L47.8699 16.3929L46.6189 15.3563L33.6906 4.81361L41.1631 0.650146L41.1523 0.66699ZM0 39.475V39.5225V39.4673V39.475ZM10.4722 10.859C17.7441 3.64221 27.1246 -0.617729 30.7291 3.01899C34.3245 6.64958 30.5132 15.4849 23.2321 22.6864C15.9572 29.9031 6.69003 34.3958 3.09466 30.7652C-0.511438 27.1454 3.18194 18.0758 10.4707 10.859H10.4722Z" fill="#F3F4F6"/>
</g>
<defs>
<clipPath id="clip0_2_5251">
<rect width="49" height="49" fill="white" transform="translate(0 0.5)"/>
</clipPath>
</defs>
</svg>
